<svg width="108" height="108" viewBox="0 0 108 108" fill="none" xmlns="http://www.w3.org/2000/svg">
<path d="M89.0811 0H18.8811C8.45336 0 0 8.45336 0 18.8811V89.0811C0 99.5088 8.45336 107.962 18.8811 107.962H89.0811C99.5088 107.962 107.962 99.5088 107.962 89.0811V18.8811C107.962 8.45336 99.5088 0 89.0811 0Z" fill="#F4A31E"/>
<path d="M108 55.7899V89.0207C108.007 93.4183 106.47 97.6788 103.657 101.059C101.984 103.07 99.9115 104.711 97.5718 105.881C95.2321 107.051 92.6754 107.724 90.0629 107.856C89.7533 107.856 89.4361 107.856 89.1189 107.856H18.8811C17.2471 107.857 15.6199 107.646 14.04 107.23C12.5965 106.85 11.2042 106.298 9.8937 105.583C6.91117 103.969 4.41847 101.581 2.67754 98.6707C0.936602 95.7603 0.0116951 92.4347 0 89.0433L0 55.9259L21.3885 35.9043V11.7365C21.3965 11.225 21.6052 10.7371 21.9698 10.3782C22.3344 10.0193 22.8255 9.81812 23.3371 9.81819H38.9026C39.1582 9.81818 39.4112 9.86864 39.6472 9.96665C39.8832 10.0647 40.0975 10.2083 40.2778 10.3894C40.4581 10.5704 40.601 10.7853 40.6981 11.0216C40.7952 11.258 40.8446 11.5112 40.8436 11.7667V16.4568L53.3731 3.91972C53.5541 3.73864 53.769 3.59498 54.0055 3.49697C54.242 3.39896 54.4955 3.34851 54.7515 3.34851C55.0075 3.34851 55.261 3.39896 55.4975 3.49697C55.734 3.59498 55.9488 3.73864 56.1298 3.91972L108 55.7899Z" fill="#267BC0"/>
<path d="M42.1426 84.9876C45.9383 84.9876 49.0153 81.9106 49.0153 78.1149C49.0153 74.3192 45.9383 71.2422 42.1426 71.2422C38.3469 71.2422 35.2699 74.3192 35.2699 78.1149C35.2699 81.9106 38.3469 84.9876 42.1426 84.9876Z" fill="white"/>
<path d="M57.2929 108C55.9188 108.007 54.5524 107.795 53.2448 107.373C51.6059 106.935 43.8495 104.971 40.7228 100.576C37.3167 95.8028 36.2895 93.3029 36.1914 91.9435C36.0932 90.584 36.2593 86.4453 40.0129 86.8078C40.0129 86.8078 42.0596 88.4165 44.2121 87.9633C45.7151 87.5699 47.123 86.8763 48.3508 85.9242C48.3508 85.9242 54.6646 84.6478 56.0694 88.5298C57.308 91.9435 63.2291 97.9401 66.522 97.7362C70.0916 97.5953 73.6665 97.7849 77.2011 98.3026C79.0893 98.5745 84.1041 99.9793 86.4982 100.296C86.6685 100.319 86.8415 100.305 87.0063 100.257C87.1712 100.209 87.3244 100.128 87.4563 100.018C87.5882 99.9081 87.6959 99.7721 87.7728 99.6186C87.8497 99.465 87.894 99.2973 87.903 99.1258L88.7111 86.0375C88.7214 85.7467 88.8351 85.4691 89.0316 85.2546C89.2282 85.04 89.4948 84.9026 89.7835 84.8668H91.7245C91.896 84.8458 92.07 84.8606 92.2355 84.9104C92.4009 84.9602 92.5542 85.0439 92.6856 85.1561C92.817 85.2683 92.9236 85.4066 92.9987 85.5623C93.0738 85.7179 93.1157 85.8874 93.1217 86.0601L93.8769 103.499C93.8751 104.67 93.4136 105.794 92.5916 106.629C91.7696 107.464 90.6528 107.942 89.4814 107.962L57.2929 108Z" fill="white"/>
<path d="M84.9802 100.999L83.1374 85.4106C83.0808 84.9839 83.1927 84.552 83.4493 84.2065C83.706 83.8611 84.0872 83.6292 84.512 83.5602L85.8941 83.4016C86.1153 83.3643 86.3417 83.3728 86.5595 83.4265C86.7773 83.4803 86.9817 83.5781 87.1601 83.714C87.3385 83.85 87.4871 84.0211 87.5967 84.2168C87.7063 84.4125 87.7746 84.6286 87.7973 84.8517L90.2518 100.523C90.2985 100.941 90.1838 101.362 89.9312 101.699C89.6786 102.035 89.3071 102.263 88.8924 102.336L86.8986 102.411C86.6794 102.449 86.4549 102.442 86.2385 102.39C86.0221 102.339 85.8183 102.245 85.6392 102.113C85.4601 101.981 85.3095 101.814 85.1962 101.623C85.083 101.432 85.0096 101.219 84.9802 100.999Z" fill="white"/>
<path d="M36.5312 89.4286L33.9482 96.1427L37.0523 101.535L39.1745 95.3497L36.5312 89.4286Z" fill="white"/>
<path d="M51.9532 103.469H42.7846C42.6181 103.467 42.453 103.5 42.2994 103.564C42.1457 103.628 42.0065 103.723 41.8902 103.842C41.7739 103.961 41.6828 104.102 41.6223 104.258C41.5619 104.413 41.5333 104.578 41.5384 104.745V105.621C41.5402 105.942 41.6661 106.251 41.8899 106.482C42.1136 106.712 42.418 106.848 42.7393 106.86L60.7972 107.335L51.9532 103.469Z" fill="white"/>
<path d="M40.7304 108H22.2042L13.8059 92.7213C13.7894 92.6227 13.7947 92.5217 13.8213 92.4253C13.8478 92.3289 13.8952 92.2394 13.9599 92.1632C14.0246 92.087 14.1052 92.0258 14.196 91.9839C14.2868 91.9421 14.3856 91.9205 14.4856 91.9208H31.6221C31.7842 91.9206 31.941 91.9784 32.0643 92.0836C32.1875 92.1888 32.2691 92.3347 32.2943 92.4948L40.7304 108Z" fill="white"/>
<path d="M39.6579 106.021H48.9625C49.0756 106.023 49.1848 106.063 49.2721 106.135L50.4352 107.101C50.514 107.164 50.5712 107.25 50.5987 107.347C50.6262 107.444 50.6226 107.548 50.5884 107.643C50.5543 107.737 50.4913 107.819 50.4083 107.877C50.3253 107.934 50.2264 107.964 50.1256 107.962H40.1866C40.0989 107.964 40.0126 107.941 39.9368 107.897C39.861 107.853 39.7985 107.79 39.7561 107.713L39.2274 106.746C39.1869 106.672 39.1664 106.588 39.1681 106.503C39.1697 106.418 39.1934 106.335 39.2368 106.262C39.2802 106.188 39.3418 106.128 39.4156 106.086C39.4894 106.044 39.5729 106.021 39.6579 106.021Z" fill="white"/>
<path d="M88.3636 99.866V84.172C88.3553 83.7409 88.5156 83.3236 88.8105 83.009C89.1053 82.6945 89.5113 82.5074 89.942 82.4878H91.3846C91.6083 82.4775 91.8318 82.513 92.0414 82.5921C92.251 82.6712 92.4422 82.7922 92.6034 82.9477C92.7646 83.1033 92.8924 83.29 92.9789 83.4967C93.0654 83.7033 93.1088 83.9254 93.1065 84.1494L93.7107 100.009C93.7094 100.43 93.5476 100.833 93.2584 101.138C92.9691 101.443 92.5744 101.625 92.1549 101.648L90.1611 101.49C89.9346 101.51 89.7066 101.482 89.4911 101.41C89.2756 101.338 89.0773 101.222 88.9087 101.069C88.74 100.917 88.6045 100.732 88.5108 100.524C88.417 100.317 88.3669 100.093 88.3636 99.866Z" fill="white"/>
<path d="M27.2644 101.422C28.9328 101.422 30.2854 100.759 30.2854 99.9415C30.2854 99.1239 28.9328 98.4612 27.2644 98.4612C25.5959 98.4612 24.2434 99.1239 24.2434 99.9415C24.2434 100.759 25.5959 101.422 27.2644 101.422Z" fill="#F4A31E"/>
<path d="M9.90881 59.5889V105.659C6.9122 104.04 4.40913 101.642 2.66473 98.7166C0.920341 95.7915 -0.000415989 92.4491 1.40988e-07 89.0434V69.4826L9.90881 59.5889Z" fill="#F4A31E"/>
<path d="M108 67.9721V89.0434C108.007 93.441 106.47 97.7015 103.657 101.082C102.108 102.934 100.218 104.472 98.0911 105.613V58.3654L108 67.9721Z" fill="#F4A31E"/>
<path d="M108 55.7899V67.972L56.1298 17.6199C55.7624 17.2578 55.2673 17.0548 54.7515 17.0548C54.2356 17.0548 53.7405 17.2578 53.3731 17.6199L40.8436 30.1494L36.3122 34.6808C36.1477 34.836 35.9413 34.9396 35.7185 34.9786C35.4958 35.0176 35.2664 34.9904 35.059 34.9003C34.8516 34.8103 34.6751 34.6613 34.5515 34.472C34.4279 34.2826 34.3626 34.0611 34.3636 33.835V22.7706C34.3616 22.2552 34.1555 21.7615 33.7903 21.3977C33.4251 21.0339 32.9306 20.8296 32.4151 20.8297H29.8246C29.5691 20.8287 29.3159 20.8781 29.0795 20.9752C28.8431 21.0723 28.6283 21.2151 28.4472 21.3955C28.2662 21.5758 28.1226 21.7901 28.0245 22.0261C27.9265 22.2621 27.8761 22.5151 27.8761 22.7706V42.2937C27.8763 42.8087 27.6727 43.3029 27.3096 43.6682L0 69.4825V55.8881L21.3885 35.9043V11.7365C21.3965 11.225 21.6052 10.7371 21.9698 10.3782C22.3344 10.0193 22.8255 9.81812 23.3371 9.81818H38.9026C39.1582 9.81818 39.4112 9.86864 39.6472 9.96665C39.8832 10.0647 40.0975 10.2083 40.2778 10.3894C40.4581 10.5704 40.601 10.7853 40.6981 11.0216C40.7952 11.258 40.8446 11.5112 40.8436 11.7667V16.4568L53.3731 3.91972C53.5541 3.73864 53.769 3.59498 54.0055 3.49697C54.242 3.39896 54.4955 3.34851 54.7515 3.34851C55.0075 3.34851 55.261 3.39896 55.4975 3.49697C55.734 3.59498 55.9488 3.73864 56.1298 3.91972L108 55.7899Z" fill="white"/>
</svg>
