<svg width="597" height="82" viewBox="0 0 597 82" fill="none" xmlns="http://www.w3.org/2000/svg">
<path d="M24.28 66.12C19.7467 66.12 15.3467 65.56 11.08 64.44C6.81333 63.32 3.34667 61.8267 0.68 59.96L5.88 48.28C8.38667 49.9333 11.2933 51.2667 14.6 52.28C17.9067 53.2933 21.16 53.8 24.36 53.8C30.44 53.8 33.48 52.28 33.48 49.24C33.48 47.64 32.6 46.4667 30.84 45.72C29.1333 44.92 26.36 44.0933 22.52 43.24C18.3067 42.3333 14.7867 41.3733 11.96 40.36C9.13333 39.2933 6.70667 37.6133 4.68 35.32C2.65333 33.0267 1.64 29.9333 1.64 26.04C1.64 22.6267 2.57333 19.56 4.44 16.84C6.30667 14.0667 9.08 11.88 12.76 10.28C16.4933 8.68 21.0533 7.88 26.44 7.88C30.12 7.88 33.7467 8.30666 37.32 9.16C40.8933 9.96 44.04 11.16 46.76 12.76L41.88 24.52C36.5467 21.64 31.3733 20.2 26.36 20.2C23.2133 20.2 20.92 20.68 19.48 21.64C18.04 22.5467 17.32 23.7467 17.32 25.24C17.32 26.7333 18.1733 27.8533 19.88 28.6C21.5867 29.3467 24.3333 30.12 28.12 30.92C32.3867 31.8267 35.9067 32.8133 38.68 33.88C41.5067 34.8933 43.9333 36.5467 45.96 38.84C48.04 41.08 49.08 44.1467 49.08 48.04C49.08 51.4 48.1467 54.44 46.28 57.16C44.4133 59.88 41.6133 62.0667 37.88 63.72C34.1467 65.32 29.6133 66.12 24.28 66.12ZM55.6769 21.64H70.8769V65H55.6769V21.64ZM63.2769 16.84C60.5035 16.84 58.2635 16.0667 56.5569 14.52C54.8502 12.9733 53.9969 11.0533 53.9969 8.76C53.9969 6.46666 54.8502 4.54666 56.5569 3C58.2635 1.45333 60.5035 0.679998 63.2769 0.679998C66.0502 0.679998 68.2902 1.42666 69.9969 2.92C71.7035 4.36 72.5569 6.22667 72.5569 8.52C72.5569 10.92 71.7035 12.92 69.9969 14.52C68.2902 16.0667 66.0502 16.84 63.2769 16.84ZM108.995 20.92C114.382 20.92 118.702 22.52 121.955 25.72C125.262 28.92 126.915 33.7467 126.915 40.2V65H111.715V42.68C111.715 36.76 109.342 33.8 104.595 33.8C101.982 33.8 99.875 34.6533 98.275 36.36C96.7283 38.0667 95.955 40.6267 95.955 44.04V65H80.755V21.64H95.235V26.36C96.9417 24.6 98.9683 23.2667 101.315 22.36C103.662 21.4 106.222 20.92 108.995 20.92ZM154.938 20.92C162.138 20.92 167.631 22.5733 171.418 25.88C175.205 29.1333 177.098 34.1467 177.098 40.92V65H162.938V59.4C160.751 63.6133 156.485 65.72 150.138 65.72C146.778 65.72 143.871 65.1333 141.418 63.96C138.965 62.7867 137.098 61.2133 135.818 59.24C134.591 57.2133 133.978 54.92 133.978 52.36C133.978 48.2533 135.551 45.08 138.698 42.84C141.845 40.5467 146.698 39.4 153.258 39.4H161.898C161.631 34.8133 158.565 32.52 152.698 32.52C150.618 32.52 148.511 32.8667 146.378 33.56C144.245 34.2 142.431 35.1067 140.938 36.28L135.818 25.96C138.218 24.36 141.125 23.1333 144.538 22.28C148.005 21.3733 151.471 20.92 154.938 20.92ZM154.378 56.12C156.138 56.12 157.685 55.6933 159.018 54.84C160.351 53.9867 161.311 52.7333 161.898 51.08V47.32H155.338C150.911 47.32 148.698 48.7867 148.698 51.72C148.698 53.0533 149.205 54.12 150.218 54.92C151.231 55.72 152.618 56.12 154.378 56.12ZM232.293 21.64V65H217.813V60.36C216.213 62.12 214.293 63.4533 212.053 64.36C209.813 65.2667 207.439 65.72 204.933 65.72C199.333 65.72 194.853 64.0667 191.493 60.76C188.186 57.4533 186.533 52.4933 186.533 45.88V21.64H201.733V43.4C201.733 46.6533 202.346 49.0267 203.573 50.52C204.799 52.0133 206.586 52.76 208.933 52.76C211.333 52.76 213.279 51.9333 214.773 50.28C216.319 48.5733 217.093 45.9867 217.093 42.52V21.64H232.293Z" fill="#267BC0"/>
<path d="M296.083 9V65H283.043L258.323 35.16V65H242.803V9H255.843L280.563 38.84V9H296.083ZM353.176 21.64V57.08C353.176 65.1333 350.99 71.16 346.616 75.16C342.243 79.2133 335.95 81.24 327.736 81.24C323.47 81.24 319.47 80.76 315.736 79.8C312.003 78.84 308.83 77.4267 306.216 75.56L311.736 64.92C313.496 66.36 315.71 67.48 318.376 68.28C321.096 69.1333 323.763 69.56 326.376 69.56C330.376 69.56 333.31 68.68 335.176 66.92C337.043 65.16 337.976 62.5467 337.976 59.08V57.64C335.043 61.0533 330.75 62.76 325.096 62.76C321.256 62.76 317.71 61.9067 314.456 60.2C311.203 58.44 308.616 55.9867 306.696 52.84C304.776 49.64 303.816 45.96 303.816 41.8C303.816 37.6933 304.776 34.0667 306.696 30.92C308.616 27.72 311.203 25.2667 314.456 23.56C317.71 21.8 321.256 20.92 325.096 20.92C331.283 20.92 335.816 22.92 338.696 26.92V21.64H353.176ZM328.696 50.68C331.416 50.68 333.656 49.8533 335.416 48.2C337.23 46.5467 338.136 44.4133 338.136 41.8C338.136 39.1867 337.256 37.08 335.496 35.48C333.736 33.8267 331.47 33 328.696 33C325.923 33 323.63 33.8267 321.816 35.48C320.056 37.08 319.176 39.1867 319.176 41.8C319.176 44.4133 320.083 46.5467 321.896 48.2C323.71 49.8533 325.976 50.68 328.696 50.68ZM384.703 65.72C380.063 65.72 375.876 64.76 372.143 62.84C368.409 60.92 365.476 58.2533 363.342 54.84C361.263 51.4267 360.223 47.56 360.223 43.24C360.223 38.9733 361.263 35.1333 363.342 31.72C365.476 28.3067 368.383 25.6667 372.063 23.8C375.796 21.88 380.009 20.92 384.703 20.92C389.396 20.92 393.609 21.88 397.343 23.8C401.076 25.6667 403.983 28.3067 406.063 31.72C408.143 35.08 409.183 38.92 409.183 43.24C409.183 47.56 408.143 51.4267 406.063 54.84C403.983 58.2533 401.076 60.92 397.343 62.84C393.609 64.76 389.396 65.72 384.703 65.72ZM384.703 53.64C387.369 53.64 389.556 52.7333 391.263 50.92C392.969 49.0533 393.823 46.4933 393.823 43.24C393.823 40.04 392.969 37.5333 391.263 35.72C389.556 33.9067 387.369 33 384.703 33C382.036 33 379.849 33.9067 378.143 35.72C376.436 37.5333 375.583 40.04 375.583 43.24C375.583 46.4933 376.436 49.0533 378.143 50.92C379.849 52.7333 382.036 53.64 384.703 53.64ZM472.704 20.92C478.037 20.92 482.277 22.52 485.424 25.72C488.624 28.92 490.224 33.7467 490.224 40.2V65H475.024V42.68C475.024 39.64 474.437 37.4 473.264 35.96C472.144 34.52 470.544 33.8 468.464 33.8C466.17 33.8 464.33 34.6 462.944 36.2C461.557 37.8 460.864 40.2267 460.864 43.48V65H445.664V42.68C445.664 36.76 443.477 33.8 439.104 33.8C436.757 33.8 434.89 34.6 433.504 36.2C432.117 37.8 431.424 40.2267 431.424 43.48V65H416.224V21.64H430.704V26.2C432.304 24.44 434.197 23.1333 436.384 22.28C438.624 21.3733 441.05 20.92 443.664 20.92C446.704 20.92 449.424 21.48 451.824 22.6C454.224 23.72 456.17 25.4267 457.664 27.72C459.37 25.5333 461.53 23.8533 464.144 22.68C466.757 21.5067 469.61 20.92 472.704 20.92ZM518.298 20.92C525.498 20.92 530.991 22.5733 534.778 25.88C538.564 29.1333 540.458 34.1467 540.458 40.92V65H526.298V59.4C524.111 63.6133 519.844 65.72 513.498 65.72C510.138 65.72 507.231 65.1333 504.778 63.96C502.324 62.7867 500.458 61.2133 499.178 59.24C497.951 57.2133 497.338 54.92 497.338 52.36C497.338 48.2533 498.911 45.08 502.058 42.84C505.204 40.5467 510.058 39.4 516.618 39.4H525.258C524.991 34.8133 521.924 32.52 516.057 32.52C513.978 32.52 511.871 32.8667 509.738 33.56C507.604 34.2 505.791 35.1067 504.298 36.28L499.178 25.96C501.578 24.36 504.484 23.1333 507.898 22.28C511.364 21.3733 514.831 20.92 518.298 20.92ZM517.738 56.12C519.498 56.12 521.044 55.6933 522.378 54.84C523.711 53.9867 524.671 52.7333 525.258 51.08V47.32H518.698C514.271 47.32 512.058 48.7867 512.058 51.72C512.058 53.0533 512.564 54.12 513.578 54.92C514.591 55.72 515.978 56.12 517.738 56.12ZM578.292 20.92C583.679 20.92 587.999 22.52 591.252 25.72C594.559 28.92 596.212 33.7467 596.212 40.2V65H581.012V42.68C581.012 36.76 578.639 33.8 573.892 33.8C571.279 33.8 569.172 34.6533 567.572 36.36C566.025 38.0667 565.252 40.6267 565.252 44.04V65H550.052V5.64H565.252V25.64C566.905 24.0933 568.852 22.92 571.092 22.12C573.332 21.32 575.732 20.92 578.292 20.92Z" fill="#F4A31E"/>
</svg>
